<?xml version="1.0" standalone="no"?>
<!DOCTYPE svg PUBLIC "-//W3C//DTD SVG 20010904//EN"
 "http://www.w3.org/TR/2001/REC-SVG-20010904/DTD/svg10.dtd">
<svg version="1.0" xmlns="http://www.w3.org/2000/svg"
 width="512.000000pt" height="512.000000pt" viewBox="0 0 512.000000 512.000000"
 preserveAspectRatio="xMidYMid meet">

<g transform="translate(0.000000,512.000000) scale(0.100000,-0.100000)"
fill="#000000" stroke="none">
<path d="M1563 5101 c-95 -33 -153 -84 -204 -181 -20 -39 -24 -62 -27 -177
l-4 -133 -98 0 c-53 0 -121 -5 -150 -10 -166 -31 -305 -167 -339 -328 -8 -38
-11 -537 -11 -1715 0 -1817 -3 -1719 57 -1829 35 -64 120 -143 186 -173 72
-33 140 -45 257 -45 l98 0 4 -133 c3 -128 4 -134 37 -195 38 -70 92 -120 167
-154 l49 -23 1280 0 1280 0 47 22 c66 30 143 105 175 172 l28 56 3 279 c3 233
1 291 -13 355 -29 130 -100 250 -196 333 l-50 43 25 55 c64 140 61 79 61 1240
0 1161 3 1100 -61 1240 l-25 54 55 49 c72 62 138 163 173 262 l28 80 0 310 0
310 -28 56 c-32 67 -109 142 -175 172 l-47 22 -1265 2 c-1197 2 -1268 2 -1317
-16z m2566 -169 c19 -9 48 -34 65 -55 l31 -39 3 -251 c2 -164 -1 -273 -8 -312
-26 -134 -116 -251 -238 -308 l-67 -32 -906 -3 -906 -2 -5 202 c-5 179 -8 210
-27 261 -29 73 -102 149 -178 185 -54 25 -69 27 -225 30 l-168 4 0 106 c0 94
3 110 25 147 16 28 39 50 67 64 l43 21 1230 0 c1151 0 1232 -1 1264 -18z
m-2282 -524 c80 -53 73 114 73 -1848 0 -1962 7 -1795 -73 -1848 l-40 -27 -334
-3 c-378 -3 -407 1 -481 64 -24 20 -53 55 -65 78 l-22 41 0 1695 0 1695 27 47
c16 25 45 61 65 78 69 56 93 59 469 57 l341 -2 40 -27z m2161 -676 c48 -111
47 -85 47 -1172 0 -1088 1 -1061 -47 -1173 -20 -47 -23 -49 -52 -42 -94 20
-246 24 -1013 25 l-843 0 0 88 0 87 253 0 254 0 49 30 c61 38 110 116 119 189
3 28 5 407 3 841 l-3 790 -29 53 c-16 28 -44 64 -63 78 -69 53 -85 55 -344 52
l-239 -3 0 87 0 87 898 4 c594 2 909 7 932 14 54 17 56 16 78 -35z m-1424
-353 l26 -31 0 -784 c0 -578 -3 -791 -12 -807 -23 -44 -33 -46 -247 -47 -197
0 -206 1 -228 22 l-23 21 0 806 0 805 22 23 c21 23 25 23 229 23 l207 0 26
-31z m1398 -2226 c122 -57 212 -174 238 -308 7 -39 10 -148 8 -312 l-3 -251
-31 -39 c-63 -79 50 -73 -1328 -73 -1228 0 -1230 0 -1273 21 -29 14 -52 35
-68 63 -22 38 -25 54 -25 148 l0 106 168 4 c156 3 171 5 224 30 69 32 136 97
167 160 31 64 41 144 41 331 l0 157 908 -2 907 -3 67 -32z"/>
<path d="M2465 485 c-25 -24 -32 -65 -19 -100 17 -44 34 -45 594 -45 l532 0
29 29 c37 38 39 82 4 116 l-24 25 -546 0 -546 0 -24 -25z"/>
<path d="M3825 478 c-32 -38 -29 -81 11 -115 21 -19 37 -23 94 -23 57 0 73 4
94 23 40 34 43 77 11 115 -26 31 -29 32 -105 32 -76 0 -79 -1 -105 -32z"/>
</g>
</svg>
